:version 1.10
:name ASF
:units
  mass 1
  length 1
  angle deg
:documentation
  ASF file generated by Kaydara
:root
  axis xyz
  order  tx ty tz rx ry rz
  position 0 0 0
  orientation 0 0 0
:bonedata
  begin
    id 1
    name LeftUpLegDummy
    direction 1 -2.30186e-007 -8.31532e-007
    length 2.93387
    axis 0 0 0 xyz
  end
  begin
    id 2
    name LeftUpLeg
    direction -1.82929e-007 -1 -1.48925e-009
    length 17.3336
    axis -3.48766 0.00143442 -0.000521554 xyz
    dof rx ry rz
  end
  begin
    id 3
    name LeftLeg
    direction -1.82929e-007 -1 -5.23717e-011
    length 14.9995
    axis 3.68178 -0.00654042 -0.000282425 xyz
    dof rx ry rz
  end
  begin
    id 4
    name LeftFoot
    direction 8.31532e-007 -4.54534e-011 1
    length 6.74421
    axis 1.87234e-006 4.66016e-005 -5.96866e-006 xyz
    dof rx ry rz
  end
  begin
    id 5
    name LeftToes
    direction 0.00818058 -0.00485161 0.999955
    length 3.85048
    axis 1.06247e-005 4.65869e-005 -5.96999e-006 xyz
    dof rx ry rz
  end
  begin
    id 6
    name SpineDummy
    direction -5.8607e-008 0.943407 -0.331637
    length 5.93572
    axis 0 0 0 xyz
  end
  begin
    id 7
    name Spine
    direction -1.04988e-007 0.999988 0.00495137
    length 10.1015
    axis -0.001389 0.000121417 6.61666e-006 xyz
    dof rx ry rz
  end
  begin
    id 8
    name Spine1
    direction 0 0 0
    length 0
    axis -0.001389 0.00012144 6.56766e-006 xyz
    dof rx ry rz
  end
  begin
    id 9
    name RightShoulderDummy
    direction -0.98348 0.17941 -0.0240696
    length 3.59882
    axis -0.001389 0.00012144 6.56766e-006 xyz
  end
  begin
    id 10
    name RightShoulder
    direction -0.978693 0.204882 0.0135597
    length 2.70001
    axis 0.215806 0.000203631 -0.00679732 xyz
    dof rx ry rz
  end
  begin
    id 11
    name RightArm
    direction -1 3.85509e-006 8.31394e-007
    length 10.2459
    axis -23.2009 -0.134239 -0.964098 xyz
    dof rx ry rz
  end
  begin
    id 12
    name RightForeArm
    direction -1 3.85569e-006 8.3129e-007
    length 8.16799
    axis -9.92322 0.0658061 0.17887 xyz
    dof rx ry rz
  end
  begin
    id 13
    name RightHand
    direction -0.992843 -0.0414604 0.112003
    length 5.28593
    axis -0.00960638 0.00330669 -0.185225 xyz
    dof rx ry rz
  end
  begin
    id 14
    name LeftShoulder1Dummy
    direction 0.983523 0.179172 -0.0240748
    length 3.59866
    axis -0.001389 0.00012144 6.56766e-006 xyz
  end
  begin
    id 15
    name LeftShoulder1
    direction 0.978627 0.205195 0.0135605
    length 2.70019
    axis -0.001389 0.00012144 6.57583e-006 xyz
    dof rx ry rz
  end
  begin
    id 16
    name LeftArm
    direction 1 3.51895e-006 -8.60188e-007
    length 10.2459
    axis -23.1894 0.134785 0.967513 xyz
    dof rx ry rz
  end
  begin
    id 17
    name LeftForeArm
    direction 1 3.51921e-006 -7.32029e-007
    length 8.16799
    axis -9.91835 -0.0656957 -0.177789 xyz
    dof rx ry rz
  end
  begin
    id 18
    name LeftHand
    direction 0.992938 -0.0411636 0.11126
    length 5.32135
    axis -0.00960237 -0.00340661 0.185177 xyz
    dof rx ry rz
  end
  begin
    id 19
    name HEadDummy
    direction 1.01974e-006 0.999861 -0.016675
    length 2.99946
    axis -0.001389 0.00012144 6.56766e-006 xyz
  end
  begin
    id 20
    name HEad
    direction -0.0222689 0.980941 0.193023
    length 5.12695
    axis -0.001389 0.00012144 6.56766e-006 xyz
    dof rx ry rz
  end
  begin
    id 21
    name RightUpLegDummy
    direction -1 2.30186e-007 8.31532e-007
    length 2.93387
    axis 0 0 0 xyz
  end
  begin
    id 22
    name RightUpLeg
    direction -1.82966e-007 -1 1.56832e-007
    length 17.3336
    axis -3.4909 -0.000906625 0.00028951 xyz
    dof rx ry rz
  end
  begin
    id 23
    name RightLeg
    direction -1.82786e-007 -1 -1.80317e-007
    length 14.9995
    axis 3.68513 0.0193739 -0.131021 xyz
    dof rx ry rz
  end
  begin
    id 24
    name RightFoot
    direction 8.31721e-007 -4.63324e-011 1
    length 6.74421
    axis 4.81691e-005 -0.120479 -0.188785 xyz
    dof rx ry rz
  end
  begin
    id 25
    name RightToes
    direction 0.00124746 -0.014064 0.9999
    length 3.85082
    axis 0.000481921 0.542163 -0.142575 xyz
    dof rx ry rz
  end
:hierarchy
  begin
    root LeftUpLegDummy SpineDummy RightUpLegDummy
    LeftUpLegDummy LeftUpLeg
    LeftUpLeg LeftLeg
    LeftLeg LeftFoot
    LeftFoot LeftToes
    SpineDummy Spine
    Spine Spine1
    Spine1 RightShoulderDummy LeftShoulder1Dummy HEadDummy
    RightShoulderDummy RightShoulder
    RightShoulder RightArm
    RightArm RightForeArm
    RightForeArm RightHand
    LeftShoulder1Dummy LeftShoulder1
    LeftShoulder1 LeftArm
    LeftArm LeftForeArm
    LeftForeArm LeftHand
    HEadDummy HEad
    RightUpLegDummy RightUpLeg
    RightUpLeg RightLeg
    RightLeg RightFoot
    RightFoot RightToes
  end

:SAMPLES-PER-SECOND 30
:FULLY-SPECIFIED
:DEGREES
369
root  -2.07637 34.2021 -13.0986 -170.011 60.7111 -178.059
LeftUpLeg  -14.5118 14.5594 -4.28857
LeftLeg  9.88275 8.0431 0.869833
LeftFoot  0.257971 0.00516927 0.0996202
LeftToes  -7.78095 7.65994e-007 1.12379e-007
Spine  5.12495 1.70223 -1.343
Spine1  9.7261 4.1134 -3.31275
RightShoulder  0.0789132 -0.448816 -4.1718
RightArm  10.5384 10.4899 86.4755
RightForeArm  142.821 46.8754 168.81
RightHand  2.19182 -9.94736 -24.4091
LeftShoulder1  0.00586452 -0.565654 -4.65801
LeftArm  -14.5989 17.7106 -68.245
LeftForeArm  28.4942 -30.5871 -5.97551
LeftHand  0.00222715 1.13324 0.125892
HEad  28.3423 -22.9488 2.91259
RightUpLeg  -17.3505 -10.9875 -3.60538
RightLeg  13.0041 0.4428 0.0736671
RightFoot  8.70521 0.014065 0.192744
RightToes  -34.1008 -0.173155 -0.279433
370
root  -2.19892 34.1992 -13.1141 -169.875 61.59 -177.919
LeftUpLeg  -14.6598 14.8695 -4.41733
LeftLeg  9.90646 8.50593 0.923131
LeftFoot  0.12985 0.00470787 0.082362
LeftToes  -7.54513 7.65994e-007 1.12379e-007
Spine  5.12146 1.63005 -1.28636
Spine1  9.71212 3.98287 -3.23627
RightShoulder  0.0808933 -0.490752 -4.01177
RightArm  10.4162 10.7264 86.347
RightForeArm  142.379 47.0076 168.76
RightHand  2.18044 -10.0215 -24.1066
LeftShoulder1  0.00592427 -0.674488 -4.70618
LeftArm  -14.7131 17.946 -68.3215
LeftForeArm  28.1499 -30.0234 -5.84136
LeftHand  0.00263376 1.32568 0.164352
HEad  28.1029 -22.5458 2.64397
RightUpLeg  -17.953 -11.7753 -3.06252
RightLeg  13.2252 -0.175654 -0.0285595
RightFoot  9.01376 0.0221866 0.101959
RightToes  -33.71 -0.170285 -0.276411
371
root  -2.31652 34.1967 -13.1332 -169.717 62.4465 -177.755
LeftUpLeg  -14.8085 15.1252 -4.52545
LeftLeg  9.95695 8.95599 0.979584
LeftFoot  -0.0262789 0.00453335 0.058421
LeftToes  -7.33175 7.65994e-007 1.12379e-007
Spine  5.10874 1.56798 -1.23763
Spine1  9.68127 3.86918 -3.16794
RightShoulder  0.0824611 -0.531701 -3.8946
RightArm  10.4415 10.9207 86.2518
RightForeArm  142.417 47.1378 168.709
RightHand  2.2028 -10.1079 -24.1443
LeftShoulder1  0.00598737 -0.814011 -4.75379
LeftArm  -14.6036 18.1783 -68.3148
LeftForeArm  28.0154 -29.9049 -5.8134
LeftHand  0.00313387 1.40883 0.190961
HEad  28.0062 -22.0668 2.36878
RightUpLeg  -18.4798 -12.6557 -2.47004
RightLeg  13.2874 -0.75663 -0.12704
RightFoot  9.35509 0.0308783 0.00960336
RightToes  -33.1577 -0.166627 -0.27323
372
root  -2.42499 34.1939 -13.1547 -169.552 63.2637 -177.574
LeftUpLeg  -14.9653 15.3964 -4.6149
LeftLeg  10.0583 9.35506 1.03956
LeftFoot  -0.156687 0.00409096 0.036351
LeftToes  -7.06251 7.65994e-007 1.12379e-007
Spine  5.1076 1.51385 -1.19243
Spine1  9.67605 3.76777 -3.10074
RightShoulder  0.0838341 -0.623315 -3.79786
RightArm  10.5333 11.1349 86.168
RightForeArm  142.315 47.2701 168.657
RightHand  2.22123 -10.224 -24.0698
LeftShoulder1  0.00605325 -0.898926 -4.78222
LeftArm  -14.3659 18.2844 -68.2918
LeftForeArm  27.9358 -30.1182 -5.86392
LeftHand  0.00375417 1.4358 0.303667
HEad  27.7687 -21.5632 2.13597
RightUpLeg  -18.8941 -13.3831 -1.91449
RightLeg  13.1916 -1.37174 -0.228678
RightFoot  9.69902 0.0409001 -0.0968336
RightToes  -32.786 -0.163569 -0.270855
373
root  -2.52129 34.1918 -13.1737 -169.395 64.0407 -177.393
LeftUpLeg  -15.0995 15.6917 -4.6965
LeftLeg  10.1414 9.70439 1.09222
LeftFoot  -0.240778 0.00310169 0.0204201
LeftToes  -6.80774 7.65994e-007 1.12379e-007
Spine  5.12385 1.44533 -1.14704
Spine1  9.71 3.63253 -3.02775
RightShoulder  0.0851852 -0.481202 -3.8573
RightArm  10.4095 11.4052 86.0993
RightForeArm  142.028 47.3883 168.611
RightHand  2.23048 -10.3686 -23.8349
LeftShoulder1  0.00612131 -1.025 -4.6941
LeftArm  -14.2153 18.2722 -68.3338
LeftForeArm  27.6431 -30.4956 -5.95397
LeftHand  0.00415202 1.42637 0.307619
HEad  27.4896 -20.9712 1.92284
RightUpLeg  -19.2196 -13.9238 -1.41097
RightLeg  13.0296 -2.01635 -0.330639
RightFoot  10.0319 0.0521808 -0.216953
RightToes  -32.6191 -0.161882 -0.269394
374
root  -2.61043 34.1891 -13.1861 -169.246 64.707 -177.225
LeftUpLeg  -15.2255 15.8777 -4.76332
LeftLeg  10.194 10.0891 1.14443
LeftFoot  -0.268272 0.00129716 0.0147318
LeftToes  -6.51148 7.65994e-007 1.12379e-007
Spine  5.11435 1.41422 -1.10652
Spine1  9.68291 3.58269 -2.97306
RightShoulder  0.0865686 -0.492116 -3.83653
RightArm  10.3351 11.5857 85.9882
RightForeArm  141.79 47.4522 168.587
RightHand  2.24399 -10.5256 -23.6228
LeftShoulder1  0.00619098 -1.08707 -4.71457
LeftArm  -14.0101 18.0975 -68.2851
LeftForeArm  27.3394 -30.9303 -6.05855
LeftHand  0.00483429 1.34748 0.422417
HEad  27.393 -20.318 1.63089
RightUpLeg  -19.4899 -14.2782 -0.982801
RightLeg  12.8638 -2.62639 -0.423046
RightFoot  10.3167 0.0641901 -0.333477
RightToes  -32.1219 -0.160616 -0.26828
375
root  -2.69378 34.185 -13.1956 -169.117 65.2489 -177.078
LeftUpLeg  -15.3094 15.9804 -4.8216
LeftLeg  10.1813 10.417 1.17893
LeftFoot  -0.316558 -0.000401957 0.00491056
LeftToes  -6.27659 7.65994e-007 1.12379e-007
Spine  5.11847 1.3659 -1.07519
Spine1  9.68138 3.4988 -2.93755
RightShoulder  0.088146 -0.444161 -3.83726
RightArm  10.2307 11.8585 85.8916
RightForeArm  141.631 47.6275 168.518
RightHand  2.24682 -10.6931 -23.2847
LeftShoulder1  0.00626166 -1.22414 -4.78256
LeftArm  -13.757 17.81 -68.1048
LeftForeArm  26.9235 -31.4564 -6.18645
LeftHand  0.00558088 1.2494 0.602243
HEad  27.1641 -19.5641 1.39324
RightUpLeg  -19.7976 -14.7592 -0.586541
RightLeg  12.825 -2.99576 -0.480524
RightFoot  10.5547 0.0724081 -0.408353
RightToes  -31.6938 -0.159714 -0.267468
376
root  -2.77153 34.1787 -13.2012 -169.004 65.7496 -176.933
LeftUpLeg  -15.4693 16.1926 -4.8773
LeftLeg  10.3605 10.5085 1.22225
LeftFoot  -0.541528 -0.000176608 -0.0373802
LeftToes  -6.14465 7.65994e-007 1.12379e-007
Spine  5.1275 1.34755 -1.05337
Spine1  9.68789 3.47615 -2.91875
RightShoulder  0.090126 -0.441368 -3.89748
RightArm  10.0755 12.1917 85.8703
RightForeArm  141.359 47.908 168.406
RightHand  2.24283 -10.9369 -22.7292
LeftShoulder1  0.00633277 -1.34525 -4.88231
LeftArm  -13.4961 17.3343 -67.9037
LeftForeArm  26.6211 -31.9503 -6.30786
LeftHand  0.00648953 1.16193 0.876143
HEad  26.9097 -18.7001 1.28912
RightUpLeg  -20.1093 -14.9569 -0.316705
RightLeg  12.945 -3.23636 -0.526112
RightFoot  10.6767 0.0778529 -0.455575
RightToes  -31.3338 -0.159119 -0.266913
377
root  -2.83861 34.1719 -13.1989 -168.93 66.1572 -176.82
LeftUpLeg  -15.6869 16.4475 -4.92625
LeftLeg  10.7052 10.456 1.27961
LeftFoot  -0.911778 -0.000839364 -0.105497
LeftToes  -6.38513 7.65994e-007 1.12379e-007
Spine  5.15012 1.34736 -1.04754
Spine1  9.71672 3.49379 -2.93262
RightShoulder  0.0926988 -0.396796 -4.01182
RightArm  9.95554 12.563 85.8868
RightForeArm  141.042 48.1541 168.307
RightHand  2.25696 -11.1441 -22.4477
LeftShoulder1  0.00640372 -1.45302 -4.94207
LeftArm  -13.3864 16.7139 -67.7569
LeftForeArm  26.3801 -32.4193 -6.42438
LeftHand  0.00746378 1.07651 1.15469
HEad  26.591 -17.6384 1.23686
RightUpLeg  -20.3282 -14.7431 -0.209458
RightLeg  13.0681 -3.54782 -0.584598
RightFoot  10.8091 0.0835763 -0.517435
RightToes  -31.3585 -0.158776 -0.266569
378
root  -2.90356 34.1691 -13.1907 -168.94 66.4883 -176.789
LeftUpLeg  -15.9428 16.6995 -5.00158
LeftLeg  11.1943 10.4277 1.36603
LeftFoot  -1.60211 -0.00327493 -0.234233
LeftToes  -6.99881 7.65994e-007 1.12379e-007
Spine  5.18803 1.36059 -1.05606
Spine1  9.77098 3.54199 -2.97644
RightShoulder  0.095435 -0.333069 -4.18143
RightArm  9.94399 12.9918 85.9673
RightForeArm  140.839 48.4999 168.166
RightHand  2.25944 -11.2762 -22.21
LeftShoulder1  0.00647393 -1.58188 -5.02623
LeftArm  -13.3264 16.0163 -67.5933
LeftForeArm  26.1039 -32.8533 -6.53331
LeftHand  0.00876689 0.986211 1.48159
HEad  26.2818 -16.2537 1.02297
RightUpLeg  -20.5229 -14.293 -0.235733
RightLeg  13.2485 -3.90974 -0.656892
RightFoot  10.9027 0.0894262 -0.587153
RightToes  -31.3614 -0.158626 -0.266394
379
root  -2.94505 34.1763 -13.1892 -168.976 66.6825 -176.771
LeftUpLeg  -16.1382 16.9061 -5.07807
LeftLeg  11.6642 10.2991 1.43481
LeftFoot  -2.697 -0.0102631 -0.435988
LeftToes  -6.52599 7.65994e-007 1.12379e-007
Spine  5.21662 1.35558 -1.06076
Spine1  9.81141 3.54587 -3.00235
RightShoulder  0.0974762 -0.344532 -4.37953
RightArm  10.0355 13.5155 86.2352
RightForeArm  140.182 49.025 167.949
RightHand  2.28001 -11.8795 -21.2746
LeftShoulder1  0.0065428 -1.77019 -5.13051
LeftArm  -13.1673 15.3617 -67.3803
LeftForeArm  25.7221 -33.1822 -6.61668
LeftHand  0.0102189 0.873807 1.79604
HEad  26.1388 -13.8292 0.758483
RightUpLeg  -20.7077 -14.3489 -0.234577
RightLeg  13.5182 -3.66433 -0.633471
RightFoot  11.0826 0.0871055 -0.54572
RightToes  -31.6817 -0.158613 -0.26634
